<svg xmlns="http://www.w3.org/2000/svg" viewBox="0 0 1024 1024">
  <defs>
    <linearGradient id="bg" x1="0" y1="0" x2="0" y2="1">
      <stop offset="0" stop-color="#4B3FD1"/>
      <stop offset="1" stop-color="#1E1A5E"/>
    </linearGradient>
    <linearGradient id="bar" x1="0" y1="0" x2="0" y2="1">
      <stop offset="0" stop-color="#5B4FE6"/>
      <stop offset="1" stop-color="#2C2585"/>
    </linearGradient>
    <filter id="sh" x="-20%" y="-20%" width="140%" height="140%">
      <feDropShadow dx="0" dy="14" stdDeviation="18" flood-color="#0B0930" flood-opacity="0.45"/>
    </filter>
  </defs>
  <rect x="100" y="100" width="824" height="824" rx="185" fill="url(#bg)"/>
  <g filter="url(#sh)">
    <path d="M300 270 H724 A96 96 0 0 1 820 366 V610 A96 96 0 0 1 724 706 H452 L336 800 Q318 814 320 790 L330 706 H300 A96 96 0 0 1 204 610 V366 A96 96 0 0 1 300 270 Z" fill="#F7F6FF"/>
  </g>
  <g fill="url(#bar)" transform="translate(16 0)">
    <rect x="316" y="448" width="44" height="80" rx="22"/>
    <rect x="392" y="398" width="44" height="180" rx="22"/>
    <rect x="468" y="418" width="44" height="140" rx="22"/>
    <rect x="544" y="453" width="44" height="70" rx="22"/>
    <path d="M632 380 H676 M654 380 V596 M632 596 H676" stroke="url(#bar)" stroke-width="22" stroke-linecap="round" fill="none"/>
  </g>
</svg>
